<?xml version="1.0" encoding="utf-8"?>
<!-- Generator: Adobe Illustrator 14.0.0, SVG Export Plug-In . SVG Version: 6.00 Build 43363)  -->
<!DOCTYPE svg PUBLIC "-//W3C//DTD SVG 1.1//EN" "http://www.w3.org/Graphics/SVG/1.1/DTD/svg11.dtd">
<svg version="1.1" id="Capa_1" xmlns="http://www.w3.org/2000/svg" xmlns:xlink="http://www.w3.org/1999/xlink" x="0px" y="0px"
	 width="39.772px" height="39.772px" viewBox="-515.93 483.881 39.772 39.772"
	 enable-background="new -515.93 483.881 39.772 39.772" xml:space="preserve">
<image overflow="visible" width="1366" height="768" xlink:href="F34E8140.jpg"  transform="matrix(1 0 0 1 -364.385 279.2302)">
</image>
<path fill="#CCCCCC" d="M-478.015,517.748l-9.579-9.578c1.71-2.396,2.737-5.303,2.737-8.382c0-8.039-6.5-14.539-14.54-14.539
	c-8.039,0-14.539,6.5-14.539,14.539s6.5,14.539,14.539,14.539c3.079,0,5.987-1.026,8.381-2.736l9.579,9.579
	c0.855,0.854,2.395,0.854,3.421,0l0,0C-476.989,520.143-476.989,518.774-478.015,517.748z M-499.396,510.906
	c-6.158,0-11.118-4.96-11.118-11.118c0-6.157,4.96-11.118,11.118-11.118s11.118,4.961,11.118,11.118
	C-488.278,505.946-493.239,510.906-499.396,510.906z"/>
</svg>
